# xmcd
#
# Track frame offsets:
#	150
#	14590
#	33339
#	51665
#	65168
#	81390
#	96832
#	113794
#	129632
#	149270
#
# Disc length: 2165 seconds
#
# Revision: 1
# Processed by: cddbd v1.5.1PL2 Copyright (c) Steve Scherf et al.
# Submitted via: audiograbber 1.83.01
#
DISCID=9608730a
DTITLE=The Righteous Brothers - The Sons of Mrs. Righteous
DYEAR=1900
DGENRE=
TTITLE0=Young blood
TTITLE1=Nobody bat you
TTITLE2=Never say i Love you
TTITLE3=Try again
TTITLE4=Sing lady
TTITLE5=Substitute
TTITLE6=All you get from love is a love song
TTITLE7=High blood pressure
TTITLE8=Is it so wrong
TTITLE9=Just another fool
EXTD=Schallplatte
EXTT0=
EXTT1=
EXTT2=
EXTT3=
EXTT4=
EXTT5=
EXTT6=
EXTT7=
EXTT8=
EXTT9=
PLAYORDER=
